<?xml version="1.0" encoding="utf-8"?>
<svg viewBox="0 0 36 17.2" xmlns="http://www.w3.org/2000/svg">
  <linearGradient id="a" gradientUnits="userSpaceOnUse" x1="-15.5" x2="59.992" y1="10" y2="75.024" gradientTransform="matrix(1.056419, 0, 0, 1, -59.971069, -0.317375)">
    <stop offset="0" stop-color="#62c"/>
    <stop offset="1" stop-color="#301060"/>
  </linearGradient>
  <g fill="url(#a)" transform="matrix(1, 0, 0, 1, -1.853645, -1.351658)">
    <path d="M 27.827 3.42 C 27.585 3.297 27.307 3.264 27.043 3.327 C 26.77 3.396 26.527 3.551 26.349 3.771 L 24.595 5.858 L 21.485 2.156 C 21.231 1.853 20.885 1.683 20.526 1.683 C 20.166 1.683 19.821 1.853 19.567 2.156 L 16.457 5.858 L 14.703 3.771 C 14.526 3.552 14.282 3.397 14.009 3.329 C 13.745 3.266 13.468 3.299 13.225 3.421 C 12.977 3.543 12.765 3.75 12.616 4.015 C 12.465 4.289 12.387 4.598 12.388 4.912 L 12.388 13.459 C 12.388 14.529 12.746 15.555 13.382 16.312 C 14.018 17.069 14.88 17.494 15.779 17.496 L 25.273 17.496 C 26.173 17.494 27.034 17.069 27.67 16.312 C 28.306 15.555 28.663 14.529 28.664 13.459 L 28.664 4.912 C 28.664 4.592 28.585 4.281 28.436 4.015 C 28.298 3.759 28.086 3.552 27.827 3.42 L 27.827 3.42 Z"/>
  </g>
</svg>