<?xml version="1.0" encoding="utf-8"?>
<svg viewBox="0 0 16.3 15.8" xmlns="http://www.w3.org/2000/svg">
  <linearGradient id="a" gradientUnits="userSpaceOnUse" x1="-15.5" x2="59.992" y1="10" y2="75.024" gradientTransform="matrix(1.056419, 0, 0, 1, -60.033002, -0.422793)">
    <stop offset="0" stop-color="#62c"/>
    <stop offset="1" stop-color="#301060"/>
  </linearGradient>
  <g fill="url(#a)" transform="matrix(1, 0, 0, 1, -12.325989, -1.578)">
    <path d="M 27.765 3.315 C 27.523 3.192 20.823 1.578 20.464 1.578 C 20.104 1.578 13.406 3.194 13.163 3.316 C 12.915 3.438 12.703 3.645 12.554 3.91 C 12.403 4.184 12.325 4.493 12.326 4.807 L 12.326 13.354 C 12.326 14.424 12.684 15.45 13.32 16.207 C 13.956 16.964 14.818 17.389 15.717 17.391 L 25.211 17.391 C 26.111 17.389 26.972 16.964 27.608 16.207 C 28.244 15.45 28.601 14.424 28.602 13.354 L 28.602 4.807 C 28.602 4.487 28.523 4.176 28.374 3.91 C 28.236 3.654 28.024 3.447 27.765 3.315 Z"/>
  </g>
  <path d="M 12.276 0.128 L 12.956 0.128 L 12.956 7.651 L 12.218 7.651 L 8.427 1.317 L 8.427 7.651 L 7.712 7.651 L 7.712 0.128 L 8.509 0.128 L 12.276 6.368 Z" transform="matrix(1.86918, 0, 0, 0.767696, -11.240033, 5.053573)" style="fill: rgb(27, 27, 27); paint-order: fill; white-space: pre;"/>
</svg>