<?xml version="1.0" encoding="utf-8"?>
<svg viewBox="0 0 82 18" xmlns="http://www.w3.org/2000/svg">
  <g transform="matrix(0.012366, 0, 0, -0.010371, -37.907673, 26.353985)" id="g10" style="">
    <g transform="scale(0.1)" id="g12">
      <g transform="matrix(1.4411, 0, 0, 1.4411, 32303.105469, 1475.181641)" id="g2248">
        <path id="path2250" style="fill-opacity: 1; fill-rule: nonzero; stroke: none;" d="m 13914.7,14060.9 v -3973.1 c 0,-568.29 -21.3,-974.93 -63.7,-1219.88 -42.4,-244.95 -168.2,-451.6 -377.2,-619.73 -209,-168.28 -519.3,-252.31 -930.8,-252.31 -405,0 -724.3,88.96 -957.8,267.02 -233.6,177.99 -381.4,413.99 -443.4,707.93 -1.8,9.44 -3.6,19.64 -5.4,30.19 -32.3,194.78 -48.4,584.68 -48.4,1170.08 v 1354.4 l 91.6,255 552.6,1539.1 264.4,736.5 132.2,368.2 c 22.2,61.3 43.7,122.9 66.8,183.8 23.4,60.9 47.6,121.5 66.5,184 l 111,375.8 c 36.3,125.6 73.3,250.8 109,376.6 72.2,251.2 143.2,502.8 211.2,755.5 -108.4,-238.2 -213.6,-477.6 -317.7,-717.3 -52.4,-119.7 -103.6,-239.9 -155.4,-359.9 l -153.5,-360.6 c -25.1,-60.2 -45,-122.3 -65.8,-184.2 -20.8,-61.8 -43.5,-122.9 -65.3,-184.3 l -132.2,-368.2 -264.5,-736.5 -359.3,-1000.9 -91.6,-255 -606.7,-1689.7 L 9768.62,8458.65 9423.54,7497.72 9177.2,6811.58 8894.71,6024.89 8784.1,5648.93 c -36.43,-125.46 -73.28,-250.78 -109.16,-376.44 -36.22,-125.6 -71.95,-251.34 -107.55,-377.08 l -52.74,-188.95 -26.3,-94.44 -25.88,-94.65 40.31,89.44 39.77,89.66 79.45,179.3 c 52.6,119.7 104.99,239.4 156.89,359.31 52.26,119.84 103.53,239.96 155.3,359.93 l 153.77,360.49 323.85,901.88 204.98,570.95 252.66,703.56 c 74.73,-178.89 180.45,-352.44 317.05,-520.57 72.2,-88.83 153.6,-171.82 244.1,-248.98 167.5,-142.74 366.1,-265.49 596.2,-368.33 354.3,-158.35 874.4,-237.59 1560.3,-237.59 568.2,0 1028.8,72.72 1381.5,218.02 352.7,145.31 634.4,340.51 845.1,585.46 210.7,244.95 355.2,545.34 433.6,901.39 78.4,355.98 117.6,965.09 117.6,1827.31 v 3772.3 h -1450.2"/>
      </g>
      <g transform="scale(1.4411)" id="g2252">
        <path id="path2254" style="fill-opacity: 1; fill-rule: nonzero; stroke: none;" d="M 31195.072 9019.019 L 32037.612 11365.629 L 32077.242 11475.929 L 32168.832 11730.929 L 33095.322 14311.229 L 33359.722 15047.729 L 33361.522 15052.529 L 33492.022 15415.929 C 33514.122 15477.229 33535.522 15538.829 33558.822 15599.729 C 33582.122 15660.629 33606.322 15721.229 33625.222 15783.729 L 33736.222 16159.529 C 33772.422 16285.129 33809.422 16410.329 33845.222 16536.129 C 33917.322 16787.329 33988.422 17038.929 34056.322 17291.629 C 33948.122 17053.429 33842.822 16814.029 33738.722 16574.329 C 33686.322 16454.629 33635.122 16334.429 33583.322 16214.429 L 33429.822 15853.829 C 33404.722 15793.629 33384.822 15731.529 33364.022 15669.629 C 33343.222 15607.829 33320.622 15546.729 33298.622 15485.329 L 33166.522 15117.129 L 33143.322 15052.529 L 32168.832 15052.529 L 32077.242 15052.529 L 32077.242 12083.629 L 31844.362 11435.029 L 30967.392 8992.719 C 30912.712 8989.319 30855.952 8987.509 30797.042 8987.509 C 30392.072 8987.509 30072.802 9076.469 29839.302 9254.529 C 29605.732 9432.519 29457.932 9668.519 29395.892 9962.459 C 29359.962 10145.309 29342.062 10545.409 29342.062 11162.729 L 29342.062 15052.529 L 27891.932 15052.529 L 27891.932 11221.529 C 27891.932 10418.009 27939.242 9810.559 28033.982 9399.069 C 28099.292 9121.369 28234.852 8856.019 28440.622 8602.949 C 28646.382 8349.809 28926.402 8144.059 29280.822 7985.639 C 29578.112 7852.759 29992.102 7775.659 30522.742 7754.219 L 30257.802 7016.519 L 30147.192 6640.559 C 30110.762 6515.099 30073.912 6389.779 30038.042 6264.119 C 30001.812 6138.519 29966.082 6012.779 29930.482 5887.039 L 29877.812 5698.089 L 29851.442 5603.649 L 29825.632 5508.999 L 29865.882 5598.439 L 29905.642 5688.099 L 29985.162 5867.399 C 30037.692 5987.099 30090.152 6106.799 30142.062 6226.709 C 30194.312 6346.549 30245.592 6466.669 30297.282 6586.639 L 30451.052 6947.129 L 30738.892 7748.739 L 30979.952 8419.959 L 31195.072 9019.019"/>
      </g>
    </g>
  </g>
  <path d="M 38.475 12.15 L 41.667 3.315 L 44.898 3.315 L 39.995 15.063 L 36.966 15.063 L 32.081 3.314 L 35.302 3.314 L 38.474 12.15 L 38.475 12.15 Z M 48.738 10.923 L 48.738 15.063 L 45.837 15.063 L 45.837 3.314 L 51.332 3.314 C 52.389 3.314 53.317 3.476 54.118 3.799 C 54.923 4.121 55.542 4.581 55.974 5.179 C 56.406 5.77 56.622 6.446 56.622 7.203 C 56.622 8.355 56.148 9.264 55.201 9.931 C 54.26 10.592 52.953 10.923 51.282 10.923 L 48.738 10.923 Z M 48.738 8.963 L 51.332 8.963 C 52.099 8.963 52.683 8.812 53.082 8.511 C 53.488 8.21 53.692 7.78 53.692 7.22 C 53.692 6.644 53.488 6.179 53.082 5.824 C 52.677 5.469 52.115 5.286 51.399 5.275 L 48.738 5.275 L 48.738 8.963 Z M 69.682 15.063 L 66.779 15.063 L 61.13 7.333 L 61.13 15.063 L 58.23 15.063 L 58.23 3.314 L 61.13 3.314 L 66.789 11.06 L 66.789 3.315 L 69.682 3.315 L 69.682 15.063 Z" fill="#000" style=""/>
</svg>